<svg xmlns="http://www.w3.org/2000/svg" viewBox="0 0 64 64">
  <circle cx="32" cy="32" r="30" fill="#fff" stroke="#222" stroke-width="4"/>
  <polygon points="32,14 41,24 32,34 23,24" fill="#222"/>
  <polygon points="32,34 41,24 51,34 41,44" fill="#222"/>
  <polygon points="32,34 23,24 13,34 23,44" fill="#222"/>
  <polygon points="32,34 23,44 32,54 41,44" fill="#222"/>
  <polygon points="32,34 41,44 32,54 23,44" fill="#222"/>
  <!-- Add pentagon center -->
  <polygon points="32,24 36,29 32,34 28,29" fill="#222"/>
  <!-- Add some hexagon outlines -->
  <path d="M32 14 L41 24 L51 34 L41 44 L32 54 L23 44 L13 34 L23 24 Z" fill="none" stroke="#222" stroke-width="2"/>
  <!-- Add some extra lines for detail -->
  <path d="M32 14 L32 24" stroke="#222" stroke-width="2"/>
  <path d="M41 24 L36 29" stroke="#222" stroke-width="2"/>
  <path d="M23 24 L28 29" stroke="#222" stroke-width="2"/>
  <path d="M41 44 L36 29" stroke="#222" stroke-width="2"/>
  <path d="M23 44 L28 29" stroke="#222" stroke-width="2"/>
</svg>
